<svg width="224" height="30" viewBox="0 0 224 30" fill="none" xmlns="http://www.w3.org/2000/svg">
<rect x="139" y="7" width="1" height="16" fill="#A2ABBD"/>
<g clip-path="url(#clip0_2_8909)">
<path d="M125.268 23.0915V20.3287V18.4874V18.2566H111.39H110.692C111.923 17.3368 112.773 15.9412 112.964 14.3433H115.864L115.097 15.1952L117.837 17.6608L119.229 16.115L117.259 14.3433H122.26V15.0339C122.26 15.4148 121.95 15.7246 121.566 15.7246H119.947V17.7967H121.566C123.099 17.7967 124.341 16.5592 124.341 15.0339V14.3433H126.884V12.2696H124.342V9.3883V7.31622H119.001L119.265 6.39478H116.619L116.355 7.31622H110.927V8.35621V12.2696H107.921V14.3417H110.857C110.599 15.6883 109.61 16.7773 108.313 17.174L109.31 18.2756V23.0915H107.691V25.1635H127.12V23.0915H125.268ZM113.009 9.3883H122.26V12.2696H118.671L119.288 11.5852L116.891 9.42939L115.497 10.9751L116.938 12.2712H113.007V9.3883H113.009ZM123.186 23.0915H120.642V20.3287H123.186V23.0915ZM118.56 23.0915H116.016V20.3287H118.56V23.0915ZM111.39 20.3271H113.934V23.0899H111.39V20.3271Z" fill="#030303"/>
<path d="M86.8721 25.1619H88.954V9.27764H102.831V22.4008C102.831 22.7817 102.52 23.0915 102.137 23.0915H98.8986V25.1635H102.137C103.67 25.1635 104.912 23.9276 104.912 22.4008V7.20557H86.8721V25.1619Z" fill="#030303"/>
<path d="M99.7217 21.2485H102.019L99.7612 16.4121L102.017 11.5789H99.7201L98.6127 13.9512L97.5052 11.5789H96.4659H95.2082H94.1688L93.0614 13.9512L91.9539 11.5789H89.6569L91.9128 16.4121L89.6553 21.2485H91.9524L93.0614 18.873L94.1704 21.2485H95.2066H96.4674H97.5037L98.6127 18.873L99.7217 21.2485ZM95.8378 19.8988L94.2099 16.4121L95.8378 12.9255L97.4657 16.4121L95.8378 19.8988Z" fill="#030303"/>
<path d="M68.2564 9.50695H83.9848V7.43488H76.3515V6.51343H73.8077V7.43488H66.1744V8.35632V19.1529C66.1744 21.0195 65.5226 22.7344 64.4326 24.0826L66.0922 25.3328C67.4464 23.6353 68.2548 21.4858 68.2548 19.1466V9.50695H68.2564Z" fill="#030303"/>
<path d="M80.9773 16.4137V13.191H83.2902V11.3481H80.9773V10.1975H78.8954V11.3481H73.3441V10.1975H71.2621V11.3481H68.9492V13.191H71.2621V16.4137H80.9773ZM78.8969 13.191V14.5724H73.3456V13.191H78.8969Z" fill="#030303"/>
<path d="M82.3648 19.1766L82.3664 17.5645H70.1074V19.1766C71.3429 20.3256 72.7003 21.3467 74.1589 22.2191C72.2352 22.9809 70.1817 23.4851 68.0381 23.6843L68.9003 25.4434C71.4964 25.1273 73.9643 24.3987 76.2361 23.3271C78.5079 24.3987 80.9758 25.1273 83.5719 25.4434L84.4341 23.6843C82.2905 23.4851 80.2354 22.9809 78.3133 22.2191C79.7703 21.3482 81.1293 20.3272 82.3648 19.1766ZM73.2651 19.4073H79.2071C78.2706 20.1028 77.2771 20.7255 76.2361 21.2692C75.1936 20.7255 74.2016 20.1012 73.2651 19.4073Z" fill="#030303"/>
<path d="M44.3838 9.27764H53.2969L52.702 11.3497H46.0038V25.1635H61.7322V11.3497H54.8694L55.4642 9.27764H63.3522V7.20557H44.3838V9.27764ZM48.0857 23.0899V19.4057H59.6503V23.0899H48.0857ZM59.6487 17.3352H48.0841V13.4218H59.6487V17.3352Z" fill="#030303"/>
<mask id="mask0_2_8909" style="mask-type:luminance" maskUnits="userSpaceOnUse" x="1" y="12" width="34" height="18">
<path d="M6.3547 23.7237C4.78692 22.1147 4.81539 19.5337 6.4164 17.958C8.01898 16.3822 10.5882 16.4106 12.156 18.0212C13.7237 19.6302 13.6953 22.2112 12.0943 23.7869C11.3048 24.563 10.2797 24.9502 9.25612 24.9502C8.20249 24.9502 7.14887 24.5409 6.3547 23.7237ZM3.57667 15.0435C0.373085 18.1935 0.316132 23.357 3.45327 26.5766C6.58884 29.7961 11.7288 29.8514 14.934 26.7014L23.8265 17.9595C25.4291 16.3837 27.9983 16.4122 29.5661 18.0212C31.1339 19.6302 31.1054 22.2127 29.5044 23.7869C27.9018 25.3611 25.3326 25.3343 23.7648 23.7253C22.9817 22.9208 21.6955 22.9066 20.895 23.6937C20.0945 24.4808 20.0803 25.7721 20.8634 26.5766C23.9989 29.7961 29.1389 29.8514 32.3441 26.7014C35.5493 23.5514 35.6046 18.3894 32.4675 15.1699C29.3319 11.952 24.192 11.8951 20.9884 15.045L17.1219 18.8446C16.7802 17.5012 16.0936 16.2289 15.059 15.1683C13.4675 13.5372 11.3618 12.7185 9.25454 12.7185C7.2074 12.7185 5.15711 13.4914 3.57667 15.0435Z" fill="white"/>
</mask>
<g mask="url(#mask0_2_8909)">
<path d="M0.319568 11.7498L35.9213 11.8967L35.6002 30.0001L0 29.8515L0.319568 11.7498Z" fill="url(#paint0_linear_2_8909)"/>
</g>
<mask id="mask1_2_8909" style="mask-type:luminance" maskUnits="userSpaceOnUse" x="9" y="2" width="18" height="10">
<path d="M9.16797 11.2991H13.2258C13.2258 8.65492 15.36 6.51331 17.9909 6.51331C20.6234 6.51331 22.7559 8.6565 22.7559 11.2991H26.8138C26.8138 6.40425 22.8635 2.43555 17.9893 2.43555C13.1183 2.43555 9.16797 6.40425 9.16797 11.2991Z" fill="white"/>
</mask>
<g mask="url(#mask1_2_8909)">
<path d="M10.6186 0L31.6642 3.16422L25.363 13.7364L4.31738 10.5706L10.6186 0Z" fill="url(#paint1_linear_2_8909)"/>
</g>
<mask id="mask2_2_8909" style="mask-type:luminance" maskUnits="userSpaceOnUse" x="9" y="9" width="18" height="12">
<path d="M22.7575 11.2991C22.7575 13.9418 20.6234 16.085 17.9925 16.085C15.3616 16.085 13.2274 13.9418 13.2274 11.2991C13.2274 10.1722 12.3193 9.26025 11.1977 9.26025C10.0776 9.26025 9.16797 10.1738 9.16797 11.2991C9.16797 16.194 13.1183 20.1627 17.9925 20.1627C22.8651 20.1627 26.817 16.194 26.817 11.2991C26.817 10.1722 25.9089 9.26025 24.7872 9.26025C23.6656 9.26025 22.7575 10.1738 22.7575 11.2991Z" fill="white"/>
</mask>
<g mask="url(#mask2_2_8909)">
<path d="M10.3167 6.57178L31.1693 9.96991L25.667 22.8528L4.81445 19.4547L10.3167 6.57178Z" fill="url(#paint2_linear_2_8909)"/>
</g>
</g>
<g clip-path="url(#clip1_2_8909)">
<path d="M164.053 12.8905C163.826 12.3048 163.599 11.7191 163.372 11.134C163.33 11.0245 163.304 10.9817 163.134 10.9944C162.337 11.0539 161.535 11.0599 160.735 11.0893C160.626 11.0933 160.569 11.0625 160.568 10.947C160.568 10.9149 160.547 10.8842 160.54 10.8515C160.335 9.90645 159.766 9.36012 158.794 9.2526C158.065 9.17245 157.351 9.1985 156.684 9.54713C156.322 9.73614 156.052 9.99327 156.037 10.4401C156.021 10.9089 156.264 11.2142 156.65 11.4245C157.428 11.8486 158.295 12.0036 159.141 12.2213C160.053 12.4557 160.969 12.6868 161.789 13.1664C162.942 13.8402 163.521 14.8628 163.597 16.1985C163.718 18.3304 162.354 20.0756 159.949 20.4335C158.853 20.5965 157.759 20.6199 156.669 20.3768C154.675 19.9313 153.429 18.6136 153.1 16.6039C153.013 16.0743 153.012 16.0663 153.528 16.0075C154.102 15.9421 154.679 15.9007 155.253 15.8325C155.493 15.8038 155.589 15.8592 155.649 16.1197C155.886 17.1629 156.436 17.953 157.548 18.1995C158.382 18.3838 159.203 18.3444 159.988 17.9711C160.296 17.8241 160.536 17.5924 160.719 17.3072C161.212 16.5365 160.943 15.6889 160.073 15.3089C159.421 15.0244 158.726 14.8748 158.041 14.6985C157.226 14.4888 156.409 14.2884 155.648 13.9171C154.174 13.1978 153.388 11.9041 153.508 10.3993C153.622 8.95606 154.612 7.7472 156.149 7.31909C157.862 6.84223 159.584 6.84623 161.219 7.63032C162.384 8.18933 163.012 9.18581 163.182 10.4581C163.219 10.7333 163.279 10.8542 163.594 10.8408C164.294 10.8108 164.997 10.8348 165.698 10.8288C165.832 10.8275 165.925 10.8428 165.973 10.9917C166.427 12.3803 166.887 13.7668 167.344 15.154C167.226 15.3884 167.023 15.4151 166.804 15.353C166.571 15.2869 166.609 15.0959 166.624 14.9135C166.654 14.5596 166.446 14.2216 166.549 13.8603C166.561 13.8182 166.525 13.7715 166.483 13.7534C165.981 13.5384 166.025 13.0916 166.046 12.6741C166.059 12.4203 166.023 12.246 165.752 12.1592C165.52 12.0851 165.496 11.8687 165.496 11.6636C165.493 10.9316 165.56 10.9857 164.765 10.9864C164.399 10.9871 164.032 10.973 163.654 10.9964C163.702 11.1574 163.835 11.1774 163.953 11.2142C164.133 11.2703 164.246 11.4005 164.253 11.5775C164.266 11.9221 164.322 12.2627 164.333 12.606C164.339 12.765 164.313 12.9613 164.053 12.8905Z" fill="#0D0D0D"/>
<path d="M164.053 12.8904C164.306 12.8597 164.271 12.6613 164.246 12.5071C164.202 12.2252 164.144 11.9527 164.178 11.6602C164.202 11.4451 164.095 11.2621 163.826 11.2888C163.626 11.3089 163.59 11.2027 163.576 11.0324C163.556 10.7886 163.733 10.8935 163.822 10.8915C164.321 10.8814 164.821 10.8935 165.321 10.8834C165.52 10.8794 165.609 10.9429 165.592 11.1499C165.58 11.2935 165.593 11.4384 165.589 11.5827C165.582 11.8485 165.572 12.0829 165.952 12.1224C166.173 12.1451 166.191 12.3695 166.153 12.5752C166.105 12.8383 166.103 13.0941 166.212 13.3559C166.282 13.5242 166.32 13.6545 166.542 13.6331C166.652 13.6224 166.734 13.6952 166.689 13.8288C166.601 14.0872 166.58 14.337 166.715 14.5942C166.762 14.685 166.762 14.8132 166.748 14.9201C166.733 15.0383 166.572 15.1732 166.759 15.2594C166.908 15.3275 167.082 15.3389 167.224 15.2019C167.253 15.1739 167.305 15.1692 167.345 15.1539C167.615 15.9226 167.883 16.692 168.169 17.5088C168.498 16.5083 168.816 15.5479 169.131 14.5868C169.516 13.41 169.899 12.2326 170.284 11.0564C170.325 10.9315 170.356 10.8227 170.546 10.826C171.334 10.84 172.123 10.832 172.95 10.832C172.605 11.7791 172.271 12.7007 171.936 13.6224C170.979 16.2518 170.022 18.8813 169.061 21.5094C168.951 21.8099 168.812 22.0998 168.68 22.3916C168.095 23.6826 166.988 24.0981 165.68 24.1622C165.213 24.1849 164.751 24.1128 164.289 24.0453C164.127 24.0213 164.063 23.9612 164.051 23.7955C164.01 23.2752 163.968 22.7543 163.893 22.2387C163.86 22.015 163.943 22.027 164.099 22.057C164.46 22.1272 164.822 22.1579 165.191 22.1272C165.72 22.0824 166.114 21.838 166.38 21.3831C166.453 21.2589 166.519 21.1307 166.59 21.0051C166.814 20.6057 166.817 20.2277 166.642 19.7816C165.765 17.5368 164.927 15.2767 164.075 13.022C164.059 12.9799 164.059 12.9338 164.053 12.8904Z" fill="#0D0D0D"/>
<path d="M219.73 17.7866C220.407 16.1156 221.085 14.4445 221.759 12.7722C221.829 12.5985 221.886 12.4195 221.902 12.2285C221.949 11.6635 221.822 11.5059 221.25 11.4825C221.075 11.4751 220.981 11.4484 220.993 11.2461C221 11.1132 221.046 11.0784 221.172 11.0791C222.051 11.0831 222.93 11.0818 223.81 11.0798C223.92 11.0798 224.014 11.0844 223.998 11.2327C223.988 11.3349 224.037 11.4631 223.863 11.4852C223.248 11.564 222.973 12.0061 222.764 12.5184C221.898 14.6496 221.036 16.7821 220.163 18.9106C219.655 20.1489 219.213 21.4165 218.616 22.6154C218.106 23.6399 217.332 24.4006 216.182 24.6731C215.684 24.7913 215.184 24.7519 214.77 24.3799C214.399 24.0473 214.286 23.5838 214.476 23.1777C214.649 22.8064 215.105 22.5893 215.574 22.6594C215.905 22.7089 216.227 22.7997 216.53 22.9353C216.859 23.0822 217.126 22.9994 217.394 22.8037C217.731 22.5579 217.923 22.2073 218.084 21.8419C218.337 21.2649 218.565 20.6772 218.812 20.0968C218.869 19.9625 218.851 19.853 218.79 19.7261C217.722 17.5014 216.66 15.274 215.588 13.0507C215.459 12.7829 215.279 12.5391 215.126 12.2819C214.888 11.8832 214.561 11.5954 214.097 11.5072C213.903 11.4705 213.918 11.3556 213.917 11.2194C213.914 11.0277 214.055 11.0824 214.152 11.0824C215.432 11.0798 216.712 11.0811 217.993 11.0798C218.134 11.0798 218.243 11.0671 218.238 11.2788C218.233 11.4838 218.13 11.4751 217.986 11.4798C217.252 11.5045 216.99 11.8692 217.218 12.5778C217.475 13.3819 217.909 14.1093 218.265 14.8693C218.702 15.801 219.158 16.724 219.605 17.6503C219.628 17.6984 219.631 17.7619 219.73 17.7866Z" fill="#0D0D0D"/>
<path d="M194.444 12.5553C194.444 14.6344 194.435 16.7135 194.449 18.7926C194.454 19.5613 194.777 19.8638 195.548 19.9119C195.614 19.9159 195.681 19.932 195.747 19.9293C195.905 19.9226 195.911 20.0161 195.919 20.141C195.929 20.3113 195.835 20.31 195.713 20.3093C194.334 20.3073 192.955 20.3073 191.576 20.3093C191.457 20.3093 191.367 20.3173 191.366 20.1444C191.365 19.9841 191.418 19.9226 191.569 19.9226C191.625 19.9226 191.679 19.9146 191.735 19.9113C192.333 19.8712 192.641 19.5833 192.701 18.9829C192.73 18.6957 192.742 18.4065 192.742 18.118C192.745 15.2829 192.746 12.4471 192.742 9.61192C192.742 9.1237 192.732 8.63415 192.698 8.14726C192.645 7.41327 192.336 7.20556 191.639 7.41994C191.497 7.46336 191.412 7.50142 191.333 7.31909C191.26 7.15079 191.296 7.09335 191.451 7.03124C192.24 6.71266 193.028 6.39008 193.812 6.05814C193.944 6.00204 194.073 6.02475 194.202 6.00605C194.403 5.97733 194.439 6.07217 194.437 6.25116C194.429 7.01855 194.434 7.78527 194.434 8.55266C194.434 9.88708 194.434 11.2215 194.434 12.5553C194.437 12.5553 194.44 12.5553 194.444 12.5553Z" fill="#0D0D0D"/>
<path d="M189.348 11.506C188.37 10.7967 187.244 10.5983 186.063 10.6832C184.32 10.8087 182.98 11.5795 182.159 13.165C181.924 13.6205 181.786 14.1094 181.644 14.5989C181.602 14.1835 181.587 13.7741 181.552 13.366C181.466 12.3569 181.093 11.5073 180.127 11.0492C179.037 10.5322 177.922 10.5276 176.81 10.9931C176.218 11.2415 175.753 11.667 175.282 12.2113C175.282 11.7691 175.268 11.4245 175.286 11.0819C175.298 10.8682 175.221 10.8228 175.021 10.8268C174.431 10.8401 173.841 10.8415 173.251 10.8261C173.041 10.8208 172.992 10.8855 172.993 11.0872C172.999 14.08 173 17.0734 172.991 20.0662C172.991 20.2906 173.074 20.314 173.26 20.3113C173.883 20.3019 174.507 20.2873 175.129 20.3166C175.437 20.3313 175.48 20.2291 175.483 19.9506C175.5 18.1607 175.408 16.3688 175.541 14.5802C175.617 13.5584 176.098 12.9139 176.996 12.6574C178.065 12.3522 178.887 12.8958 179.03 13.9852C179.086 14.4066 179.09 14.828 179.091 15.2494C179.096 16.8296 179.097 18.4092 179.089 19.9894C179.087 20.2151 179.109 20.3287 179.385 20.3153C179.918 20.2899 180.453 20.308 180.987 20.308C181.609 20.308 181.609 20.308 181.609 19.6855C181.609 18.6322 181.609 17.579 181.609 16.5144C181.702 16.5551 181.679 16.6179 181.688 16.668C181.842 17.5102 182.111 18.315 182.708 18.9441C184.195 20.5077 186.032 20.883 188.049 20.312C189.955 19.7723 191.232 18.0485 191.359 16.0035C191.474 14.1581 190.878 12.614 189.348 11.506ZM188.775 15.5714C188.776 16.3114 188.675 16.9799 188.272 17.5563C187.296 18.9515 185.229 18.7905 184.495 17.2444C184.017 16.2359 184.022 15.1726 184.418 14.1368C184.782 13.1837 185.722 12.6026 186.632 12.6995C187.686 12.811 188.488 13.5744 188.695 14.661C188.756 14.9796 188.779 15.3002 188.775 15.5714Z" fill="#0D0D0D"/>
<path d="M212.101 19.2247C211.774 19.1105 211.435 19.0584 211.091 19.0324C210.05 18.9529 209.006 18.9215 207.962 18.8888C207.652 18.8794 207.34 18.8487 207.043 18.7499C206.676 18.6276 206.545 18.3551 206.681 17.9965C206.785 17.7227 206.967 17.5009 207.165 17.2872C207.279 17.1637 207.389 17.1363 207.546 17.181C208.299 17.3954 209.059 17.3947 209.819 17.2258C211.319 16.8918 212.455 15.5915 212.351 14.0153C212.312 13.4282 212.148 12.8919 211.82 12.3583C212.333 12.3583 212.798 12.3416 213.261 12.3636C213.628 12.381 213.646 12.1639 213.648 11.8961C213.651 11.6243 213.586 11.448 213.259 11.454C212.614 11.4667 211.969 11.458 211.323 11.4573C211.191 11.4573 211.062 11.464 210.938 11.3865C209.99 10.8001 208.957 10.714 207.887 10.8916C205.975 11.2089 204.713 13.1317 205.201 14.9743C205.436 15.862 205.994 16.4931 206.802 16.9246C206.504 17.2091 206.211 17.4816 205.927 17.7621C205.817 17.8709 205.712 17.9898 205.627 18.118C205.08 18.9322 205.078 19.5339 205.934 20.0522C206.172 20.1965 206.147 20.2826 205.975 20.459C205.579 20.8637 205.186 21.2711 204.86 21.7386C204.134 22.7778 204.238 23.3682 205.349 23.9713C207.159 24.9544 209.049 24.9618 210.943 24.2538C211.99 23.8625 212.838 23.1806 213.336 22.1514C213.929 20.9198 213.392 19.6755 212.101 19.2247ZM207.062 12.4638C207.295 11.8634 207.706 11.4573 208.356 11.3578C209.04 11.2529 209.571 11.5334 209.957 12.0898C210.509 12.8859 210.598 13.7962 210.566 14.7279C210.558 14.981 210.528 15.2395 210.463 15.4833C210.27 16.2099 209.826 16.7048 209.055 16.8037C208.331 16.8965 207.787 16.5672 207.407 15.9648C206.984 15.2956 206.871 14.5449 206.862 13.5584C206.853 13.3227 206.898 12.8846 207.062 12.4638ZM212.751 21.8969C212.519 22.5508 212.003 22.9201 211.391 23.1752C211.189 23.2594 210.974 23.3248 210.76 23.3702C210.27 23.4731 209.774 23.5265 209.519 23.5152C208.46 23.4998 207.658 23.4263 206.893 23.1218C206.676 23.035 206.47 22.9308 206.281 22.7932C205.871 22.4933 205.747 22.14 205.899 21.6618C206.053 21.1769 206.36 20.7836 206.678 20.3975C206.74 20.3207 206.813 20.316 206.912 20.3281C208.212 20.487 209.52 20.5318 210.828 20.5732C211.281 20.5879 211.736 20.6259 212.173 20.7642C212.738 20.9425 212.949 21.3406 212.751 21.8969Z" fill="#0D0D0D"/>
<path d="M203.91 12.6141C202.288 10.2277 198.813 10.2899 197.216 12.2441C195.942 13.8042 195.561 15.5861 196.197 17.5183C196.836 19.4592 198.352 20.5692 200.625 20.5765C201.947 20.5351 203.265 19.8459 204.068 18.3324C205.09 16.4056 205.176 14.4795 203.91 12.6141ZM202.666 18.3298C202.395 19.1232 201.877 19.6755 201.033 19.8131C200.184 19.952 199.491 19.6221 198.97 18.9409C198.192 17.9264 197.905 16.7456 197.816 15.5013C197.751 14.5863 197.796 13.6813 198.175 12.8278C198.883 11.2356 200.814 11.0292 201.863 12.4271C202.611 13.4255 202.86 14.5823 202.926 15.7965C202.935 15.9628 202.927 16.1298 202.927 16.2961C202.944 16.9867 202.891 17.6699 202.666 18.3298Z" fill="#0D0D0D"/>
</g>
<defs>
<linearGradient id="paint0_linear_2_8909" x1="1.68691" y1="20.8117" x2="33.3774" y2="21.3721" gradientUnits="userSpaceOnUse">
<stop stop-color="#42D8FF"/>
<stop offset="1" stop-color="#06A7FF"/>
</linearGradient>
<linearGradient id="paint1_linear_2_8909" x1="13.8365" y1="6.24642" x2="23.6048" y2="12.0697" gradientUnits="userSpaceOnUse">
<stop stop-color="#42D8FF"/>
<stop offset="1" stop-color="#06A8FF"/>
</linearGradient>
<linearGradient id="paint2_linear_2_8909" x1="11.0223" y1="13.5806" x2="24.1457" y2="19.1852" gradientUnits="userSpaceOnUse">
<stop stop-color="#FF7D84"/>
<stop offset="1" stop-color="#FF3F68"/>
</linearGradient>
<clipPath id="clip0_2_8909">
<rect width="126.047" height="30" fill="white"/>
</clipPath>
<clipPath id="clip1_2_8909">
<rect width="70.9426" height="18.75" fill="white" transform="translate(153.058 6)"/>
</clipPath>
</defs>
</svg>
